<svg width="100%" viewBox="0 0 680 680" role="img" xmlns="http://www.w3.org/2000/svg">
  <title style="fill:rgb(0, 0, 0);stroke:none;color:rgb(11, 11, 11);stroke-width:1px;stroke-linecap:butt;stroke-linejoin:miter;opacity:1;font-family:&quot;Anthropic Sans&quot;, -apple-system, BlinkMacSystemFont, &quot;Segoe UI&quot;, sans-serif;font-size:16px;font-weight:400;text-anchor:start;dominant-baseline:auto">TheaterCue logo</title>
  <desc style="fill:rgb(0, 0, 0);stroke:none;color:rgb(11, 11, 11);stroke-width:1px;stroke-linecap:butt;stroke-linejoin:miter;opacity:1;font-family:&quot;Anthropic Sans&quot;, -apple-system, BlinkMacSystemFont, &quot;Segoe UI&quot;, sans-serif;font-size:16px;font-weight:400;text-anchor:start;dominant-baseline:auto">Logo vintage de teatro con máscara dramática y cortinas, estilo consola de sonido oscura</desc>

  

  
  <circle cx="340" cy="340" r="300" fill="#0d0d0d" style="fill:rgb(13, 13, 13);stroke:none;color:rgb(11, 11, 11);stroke-width:1px;stroke-linecap:butt;stroke-linejoin:miter;opacity:1;font-family:&quot;Anthropic Sans&quot;, -apple-system, BlinkMacSystemFont, &quot;Segoe UI&quot;, sans-serif;font-size:16px;font-weight:400;text-anchor:start;dominant-baseline:auto"/>
  <circle cx="340" cy="340" r="296" fill="none" stroke="#c9a84c" stroke-width="3" style="fill:none;stroke:rgb(201, 168, 76);color:rgb(11, 11, 11);stroke-width:3px;stroke-linecap:butt;stroke-linejoin:miter;opacity:1;font-family:&quot;Anthropic Sans&quot;, -apple-system, BlinkMacSystemFont, &quot;Segoe UI&quot;, sans-serif;font-size:16px;font-weight:400;text-anchor:start;dominant-baseline:auto"/>
  <circle cx="340" cy="340" r="288" fill="none" stroke="#8a6a1f" stroke-width="1" style="fill:none;stroke:rgb(138, 106, 31);color:rgb(11, 11, 11);stroke-width:1px;stroke-linecap:butt;stroke-linejoin:miter;opacity:1;font-family:&quot;Anthropic Sans&quot;, -apple-system, BlinkMacSystemFont, &quot;Segoe UI&quot;, sans-serif;font-size:16px;font-weight:400;text-anchor:start;dominant-baseline:auto"/>

  
  <path d="M 80 100 Q 100 160 85 220 Q 95 280 80 340 Q 90 400 82 460 Q 95 500 88 560 L 180 560 Q 185 500 175 460 Q 182 400 170 340 Q 178 280 168 220 Q 175 160 165 100 Z" style="fill:rgb(107, 26, 26);stroke:none;color:rgb(11, 11, 11);stroke-width:1px;stroke-linecap:butt;stroke-linejoin:miter;opacity:1;font-family:&quot;Anthropic Sans&quot;, -apple-system, BlinkMacSystemFont, &quot;Segoe UI&quot;, sans-serif;font-size:16px;font-weight:400;text-anchor:start;dominant-baseline:auto"/>
  <path d="M 80 100 Q 95 140 88 200 L 165 100 Z" style="fill:rgb(61, 14, 14);stroke:none;color:rgb(11, 11, 11);stroke-width:1px;stroke-linecap:butt;stroke-linejoin:miter;opacity:1;font-family:&quot;Anthropic Sans&quot;, -apple-system, BlinkMacSystemFont, &quot;Segoe UI&quot;, sans-serif;font-size:16px;font-weight:400;text-anchor:start;dominant-baseline:auto"/>
  <path d="M 82 250 Q 90 280 85 310 L 170 280 Q 165 250 168 220 Z" style="fill:rgb(61, 14, 14);stroke:none;color:rgb(11, 11, 11);stroke-width:1px;stroke-linecap:butt;stroke-linejoin:miter;opacity:1;font-family:&quot;Anthropic Sans&quot;, -apple-system, BlinkMacSystemFont, &quot;Segoe UI&quot;, sans-serif;font-size:16px;font-weight:400;text-anchor:start;dominant-baseline:auto"/>
  <path d="M 84 400 Q 90 430 86 460 L 172 440 Q 170 410 170 380 Z" style="fill:rgb(61, 14, 14);stroke:none;color:rgb(11, 11, 11);stroke-width:1px;stroke-linecap:butt;stroke-linejoin:miter;opacity:1;font-family:&quot;Anthropic Sans&quot;, -apple-system, BlinkMacSystemFont, &quot;Segoe UI&quot;, sans-serif;font-size:16px;font-weight:400;text-anchor:start;dominant-baseline:auto"/>
  
  <path d="M 88 560 Q 95 580 92 600 M 105 560 Q 110 582 108 600 M 122 560 Q 126 580 124 600 M 140 560 Q 143 582 141 600 M 158 560 Q 160 580 159 600 M 175 560 Q 176 582 175 600" fill="none" stroke="#c9a84c" stroke-width="2.5" stroke-linecap="round" style="fill:none;stroke:rgb(201, 168, 76);color:rgb(11, 11, 11);stroke-width:2.5px;stroke-linecap:round;stroke-linejoin:miter;opacity:1;font-family:&quot;Anthropic Sans&quot;, -apple-system, BlinkMacSystemFont, &quot;Segoe UI&quot;, sans-serif;font-size:16px;font-weight:400;text-anchor:start;dominant-baseline:auto"/>

  
  <path d="M 600 100 Q 580 160 595 220 Q 585 280 600 340 Q 590 400 598 460 Q 585 500 592 560 L 500 560 Q 495 500 505 460 Q 498 400 510 340 Q 502 280 512 220 Q 505 160 515 100 Z" style="fill:rgb(107, 26, 26);stroke:none;color:rgb(11, 11, 11);stroke-width:1px;stroke-linecap:butt;stroke-linejoin:miter;opacity:1;font-family:&quot;Anthropic Sans&quot;, -apple-system, BlinkMacSystemFont, &quot;Segoe UI&quot;, sans-serif;font-size:16px;font-weight:400;text-anchor:start;dominant-baseline:auto"/>
  <path d="M 600 100 Q 585 140 592 200 L 515 100 Z" style="fill:rgb(61, 14, 14);stroke:none;color:rgb(11, 11, 11);stroke-width:1px;stroke-linecap:butt;stroke-linejoin:miter;opacity:1;font-family:&quot;Anthropic Sans&quot;, -apple-system, BlinkMacSystemFont, &quot;Segoe UI&quot;, sans-serif;font-size:16px;font-weight:400;text-anchor:start;dominant-baseline:auto"/>
  <path d="M 598 250 Q 590 280 595 310 L 510 280 Q 515 250 512 220 Z" style="fill:rgb(61, 14, 14);stroke:none;color:rgb(11, 11, 11);stroke-width:1px;stroke-linecap:butt;stroke-linejoin:miter;opacity:1;font-family:&quot;Anthropic Sans&quot;, -apple-system, BlinkMacSystemFont, &quot;Segoe UI&quot;, sans-serif;font-size:16px;font-weight:400;text-anchor:start;dominant-baseline:auto"/>
  <path d="M 596 400 Q 590 430 594 460 L 508 440 Q 510 410 510 380 Z" style="fill:rgb(61, 14, 14);stroke:none;color:rgb(11, 11, 11);stroke-width:1px;stroke-linecap:butt;stroke-linejoin:miter;opacity:1;font-family:&quot;Anthropic Sans&quot;, -apple-system, BlinkMacSystemFont, &quot;Segoe UI&quot;, sans-serif;font-size:16px;font-weight:400;text-anchor:start;dominant-baseline:auto"/>
  
  <path d="M 592 560 Q 585 580 588 600 M 575 560 Q 570 582 572 600 M 558 560 Q 554 580 556 600 M 540 560 Q 537 582 539 600 M 522 560 Q 520 580 521 600 M 505 560 Q 504 582 505 600" fill="none" stroke="#c9a84c" stroke-width="2.5" stroke-linecap="round" style="fill:none;stroke:rgb(201, 168, 76);color:rgb(11, 11, 11);stroke-width:2.5px;stroke-linecap:round;stroke-linejoin:miter;opacity:1;font-family:&quot;Anthropic Sans&quot;, -apple-system, BlinkMacSystemFont, &quot;Segoe UI&quot;, sans-serif;font-size:16px;font-weight:400;text-anchor:start;dominant-baseline:auto"/>

  
  <path d="M 60 95 Q 160 75 340 85 Q 520 75 620 95 L 620 130 Q 520 115 340 120 Q 160 115 60 130 Z" style="fill:rgb(107, 26, 26);stroke:none;color:rgb(11, 11, 11);stroke-width:1px;stroke-linecap:butt;stroke-linejoin:miter;opacity:1;font-family:&quot;Anthropic Sans&quot;, -apple-system, BlinkMacSystemFont, &quot;Segoe UI&quot;, sans-serif;font-size:16px;font-weight:400;text-anchor:start;dominant-baseline:auto"/>
  <path d="M 60 95 Q 160 78 340 85 Q 520 78 620 95 L 620 100 Q 520 82 340 88 Q 160 82 60 100 Z" style="fill:rgb(61, 14, 14);stroke:none;color:rgb(11, 11, 11);stroke-width:1px;stroke-linecap:butt;stroke-linejoin:miter;opacity:1;font-family:&quot;Anthropic Sans&quot;, -apple-system, BlinkMacSystemFont, &quot;Segoe UI&quot;, sans-serif;font-size:16px;font-weight:400;text-anchor:start;dominant-baseline:auto"/>
  
  <path d="M 100 108 Q 120 118 140 108 Q 160 118 180 108 Q 200 118 220 108 Q 240 118 260 108 Q 280 118 300 108 Q 320 118 340 108 Q 360 118 380 108 Q 400 118 420 108 Q 440 118 460 108 Q 480 118 500 108 Q 520 118 540 108 Q 560 118 580 108" fill="none" stroke="#c9a84c" stroke-width="1.5" style="fill:none;stroke:rgb(201, 168, 76);color:rgb(11, 11, 11);stroke-width:1.5px;stroke-linecap:butt;stroke-linejoin:miter;opacity:1;font-family:&quot;Anthropic Sans&quot;, -apple-system, BlinkMacSystemFont, &quot;Segoe UI&quot;, sans-serif;font-size:16px;font-weight:400;text-anchor:start;dominant-baseline:auto"/>

  
  <ellipse cx="344" cy="356" rx="128" ry="108" fill="#000000" opacity="0.4" style="fill:rgb(0, 0, 0);stroke:none;color:rgb(11, 11, 11);stroke-width:1px;stroke-linecap:butt;stroke-linejoin:miter;opacity:0.4;font-family:&quot;Anthropic Sans&quot;, -apple-system, BlinkMacSystemFont, &quot;Segoe UI&quot;, sans-serif;font-size:16px;font-weight:400;text-anchor:start;dominant-baseline:auto"/>

  
  
  <ellipse cx="340" cy="340" rx="125" ry="110" fill="#f0e6c8" style="fill:rgb(240, 230, 200);stroke:none;color:rgb(11, 11, 11);stroke-width:1px;stroke-linecap:butt;stroke-linejoin:miter;opacity:1;font-family:&quot;Anthropic Sans&quot;, -apple-system, BlinkMacSystemFont, &quot;Segoe UI&quot;, sans-serif;font-size:16px;font-weight:400;text-anchor:start;dominant-baseline:auto"/>

  
  <ellipse cx="340" cy="330" rx="115" ry="95" fill="#e8d9b0" style="fill:rgb(232, 217, 176);stroke:none;color:rgb(11, 11, 11);stroke-width:1px;stroke-linecap:butt;stroke-linejoin:miter;opacity:1;font-family:&quot;Anthropic Sans&quot;, -apple-system, BlinkMacSystemFont, &quot;Segoe UI&quot;, sans-serif;font-size:16px;font-weight:400;text-anchor:start;dominant-baseline:auto"/>

  
  
  <ellipse cx="300" cy="320" rx="28" ry="22" fill="#1a0a00" style="fill:rgb(26, 10, 0);stroke:none;color:rgb(11, 11, 11);stroke-width:1px;stroke-linecap:butt;stroke-linejoin:miter;opacity:1;font-family:&quot;Anthropic Sans&quot;, -apple-system, BlinkMacSystemFont, &quot;Segoe UI&quot;, sans-serif;font-size:16px;font-weight:400;text-anchor:start;dominant-baseline:auto"/>
  <ellipse cx="300" cy="318" rx="22" ry="16" fill="#2a0f00" style="fill:rgb(42, 15, 0);stroke:none;color:rgb(11, 11, 11);stroke-width:1px;stroke-linecap:butt;stroke-linejoin:miter;opacity:1;font-family:&quot;Anthropic Sans&quot;, -apple-system, BlinkMacSystemFont, &quot;Segoe UI&quot;, sans-serif;font-size:16px;font-weight:400;text-anchor:start;dominant-baseline:auto"/>
  <path d="M 278 330 Q 290 345 302 330" fill="#0d0d0d" stroke="none" style="fill:rgb(13, 13, 13);stroke:none;color:rgb(11, 11, 11);stroke-width:1px;stroke-linecap:butt;stroke-linejoin:miter;opacity:1;font-family:&quot;Anthropic Sans&quot;, -apple-system, BlinkMacSystemFont, &quot;Segoe UI&quot;, sans-serif;font-size:16px;font-weight:400;text-anchor:start;dominant-baseline:auto"/>

  
  <ellipse cx="380" cy="315" rx="28" ry="22" fill="#1a0a00" style="fill:rgb(26, 10, 0);stroke:none;color:rgb(11, 11, 11);stroke-width:1px;stroke-linecap:butt;stroke-linejoin:miter;opacity:1;font-family:&quot;Anthropic Sans&quot;, -apple-system, BlinkMacSystemFont, &quot;Segoe UI&quot;, sans-serif;font-size:16px;font-weight:400;text-anchor:start;dominant-baseline:auto"/>
  <ellipse cx="380" cy="313" rx="22" ry="16" fill="#2a0f00" style="fill:rgb(42, 15, 0);stroke:none;color:rgb(11, 11, 11);stroke-width:1px;stroke-linecap:butt;stroke-linejoin:miter;opacity:1;font-family:&quot;Anthropic Sans&quot;, -apple-system, BlinkMacSystemFont, &quot;Segoe UI&quot;, sans-serif;font-size:16px;font-weight:400;text-anchor:start;dominant-baseline:auto"/>
  <path d="M 358 322 Q 370 308 382 322" fill="#0d0d0d" stroke="none" style="fill:rgb(13, 13, 13);stroke:none;color:rgb(11, 11, 11);stroke-width:1px;stroke-linecap:butt;stroke-linejoin:miter;opacity:1;font-family:&quot;Anthropic Sans&quot;, -apple-system, BlinkMacSystemFont, &quot;Segoe UI&quot;, sans-serif;font-size:16px;font-weight:400;text-anchor:start;dominant-baseline:auto"/>

  
  <path d="M 272 298 Q 285 285 312 294" fill="none" stroke="#8a6a1f" stroke-width="4" stroke-linecap="round" style="fill:none;stroke:rgb(138, 106, 31);color:rgb(11, 11, 11);stroke-width:4px;stroke-linecap:round;stroke-linejoin:miter;opacity:1;font-family:&quot;Anthropic Sans&quot;, -apple-system, BlinkMacSystemFont, &quot;Segoe UI&quot;, sans-serif;font-size:16px;font-weight:400;text-anchor:start;dominant-baseline:auto"/>
  <path d="M 352 290 Q 370 280 395 292" fill="none" stroke="#8a6a1f" stroke-width="4" stroke-linecap="round" style="fill:none;stroke:rgb(138, 106, 31);color:rgb(11, 11, 11);stroke-width:4px;stroke-linecap:round;stroke-linejoin:miter;opacity:1;font-family:&quot;Anthropic Sans&quot;, -apple-system, BlinkMacSystemFont, &quot;Segoe UI&quot;, sans-serif;font-size:16px;font-weight:400;text-anchor:start;dominant-baseline:auto"/>

  
  <path d="M 340 325 Q 332 355 325 365 Q 335 372 340 370 Q 345 372 355 365 Q 348 355 340 325" fill="#c8b88a" stroke="none" style="fill:rgb(200, 184, 138);stroke:none;color:rgb(11, 11, 11);stroke-width:1px;stroke-linecap:butt;stroke-linejoin:miter;opacity:1;font-family:&quot;Anthropic Sans&quot;, -apple-system, BlinkMacSystemFont, &quot;Segoe UI&quot;, sans-serif;font-size:16px;font-weight:400;text-anchor:start;dominant-baseline:auto"/>

  
  <path d="M 308 390 Q 325 378 340 382 Q 355 378 372 390" fill="none" stroke="#6b1a1a" stroke-width="4" stroke-linecap="round" style="fill:none;stroke:rgb(107, 26, 26);color:rgb(11, 11, 11);stroke-width:4px;stroke-linecap:round;stroke-linejoin:miter;opacity:1;font-family:&quot;Anthropic Sans&quot;, -apple-system, BlinkMacSystemFont, &quot;Segoe UI&quot;, sans-serif;font-size:16px;font-weight:400;text-anchor:start;dominant-baseline:auto"/>
  <path d="M 308 390 Q 310 400 318 402" fill="none" stroke="#8a6a1f" stroke-width="2" stroke-linecap="round" style="fill:none;stroke:rgb(138, 106, 31);color:rgb(11, 11, 11);stroke-width:2px;stroke-linecap:round;stroke-linejoin:miter;opacity:1;font-family:&quot;Anthropic Sans&quot;, -apple-system, BlinkMacSystemFont, &quot;Segoe UI&quot;, sans-serif;font-size:16px;font-weight:400;text-anchor:start;dominant-baseline:auto"/>
  <path d="M 372 390 Q 370 400 362 402" fill="none" stroke="#8a6a1f" stroke-width="2" stroke-linecap="round" style="fill:none;stroke:rgb(138, 106, 31);color:rgb(11, 11, 11);stroke-width:2px;stroke-linecap:round;stroke-linejoin:miter;opacity:1;font-family:&quot;Anthropic Sans&quot;, -apple-system, BlinkMacSystemFont, &quot;Segoe UI&quot;, sans-serif;font-size:16px;font-weight:400;text-anchor:start;dominant-baseline:auto"/>

  
  <ellipse cx="292" cy="350" rx="5" ry="8" fill="#4a9aba" opacity="0.8" style="fill:rgb(74, 154, 186);stroke:none;color:rgb(11, 11, 11);stroke-width:1px;stroke-linecap:butt;stroke-linejoin:miter;opacity:0.8;font-family:&quot;Anthropic Sans&quot;, -apple-system, BlinkMacSystemFont, &quot;Segoe UI&quot;, sans-serif;font-size:16px;font-weight:400;text-anchor:start;dominant-baseline:auto"/>
  <path d="M 292 358 Q 290 368 292 372" fill="none" stroke="#4a9aba" stroke-width="2.5" stroke-linecap="round" opacity="0.8" style="fill:none;stroke:rgb(74, 154, 186);color:rgb(11, 11, 11);stroke-width:2.5px;stroke-linecap:round;stroke-linejoin:miter;opacity:0.8;font-family:&quot;Anthropic Sans&quot;, -apple-system, BlinkMacSystemFont, &quot;Segoe UI&quot;, sans-serif;font-size:16px;font-weight:400;text-anchor:start;dominant-baseline:auto"/>

  
  <path d="M 215 340 Q 218 300 230 270" fill="none" stroke="#c9a84c" stroke-width="2" stroke-linecap="round" style="fill:none;stroke:rgb(201, 168, 76);color:rgb(11, 11, 11);stroke-width:2px;stroke-linecap:round;stroke-linejoin:miter;opacity:1;font-family:&quot;Anthropic Sans&quot;, -apple-system, BlinkMacSystemFont, &quot;Segoe UI&quot;, sans-serif;font-size:16px;font-weight:400;text-anchor:start;dominant-baseline:auto"/>
  <path d="M 465 340 Q 462 300 450 270" fill="none" stroke="#c9a84c" stroke-width="2" stroke-linecap="round" style="fill:none;stroke:rgb(201, 168, 76);color:rgb(11, 11, 11);stroke-width:2px;stroke-linecap:round;stroke-linejoin:miter;opacity:1;font-family:&quot;Anthropic Sans&quot;, -apple-system, BlinkMacSystemFont, &quot;Segoe UI&quot;, sans-serif;font-size:16px;font-weight:400;text-anchor:start;dominant-baseline:auto"/>

  
  <ellipse cx="340" cy="340" rx="125" ry="110" fill="none" stroke="#c9a84c" stroke-width="3" style="fill:none;stroke:rgb(201, 168, 76);color:rgb(11, 11, 11);stroke-width:3px;stroke-linecap:butt;stroke-linejoin:miter;opacity:1;font-family:&quot;Anthropic Sans&quot;, -apple-system, BlinkMacSystemFont, &quot;Segoe UI&quot;, sans-serif;font-size:16px;font-weight:400;text-anchor:start;dominant-baseline:auto"/>
  <ellipse cx="340" cy="340" rx="128" ry="113" fill="none" stroke="#8a6a1f" stroke-width="1.5" style="fill:none;stroke:rgb(138, 106, 31);color:rgb(11, 11, 11);stroke-width:1.5px;stroke-linecap:butt;stroke-linejoin:miter;opacity:1;font-family:&quot;Anthropic Sans&quot;, -apple-system, BlinkMacSystemFont, &quot;Segoe UI&quot;, sans-serif;font-size:16px;font-weight:400;text-anchor:start;dominant-baseline:auto"/>

  
  <circle cx="216" cy="340" r="8" style="fill:rgb(201, 168, 76);stroke:none;color:rgb(11, 11, 11);stroke-width:1px;stroke-linecap:butt;stroke-linejoin:miter;opacity:1;font-family:&quot;Anthropic Sans&quot;, -apple-system, BlinkMacSystemFont, &quot;Segoe UI&quot;, sans-serif;font-size:16px;font-weight:400;text-anchor:start;dominant-baseline:auto"/>
  <circle cx="216" cy="340" r="5" style="fill:rgb(17, 17, 17);stroke:none;color:rgb(11, 11, 11);stroke-width:1px;stroke-linecap:butt;stroke-linejoin:miter;opacity:1;font-family:&quot;Anthropic Sans&quot;, -apple-system, BlinkMacSystemFont, &quot;Segoe UI&quot;, sans-serif;font-size:16px;font-weight:400;text-anchor:start;dominant-baseline:auto"/>
  <circle cx="464" cy="340" r="8" style="fill:rgb(201, 168, 76);stroke:none;color:rgb(11, 11, 11);stroke-width:1px;stroke-linecap:butt;stroke-linejoin:miter;opacity:1;font-family:&quot;Anthropic Sans&quot;, -apple-system, BlinkMacSystemFont, &quot;Segoe UI&quot;, sans-serif;font-size:16px;font-weight:400;text-anchor:start;dominant-baseline:auto"/>
  <circle cx="464" cy="340" r="5" style="fill:rgb(17, 17, 17);stroke:none;color:rgb(11, 11, 11);stroke-width:1px;stroke-linecap:butt;stroke-linejoin:miter;opacity:1;font-family:&quot;Anthropic Sans&quot;, -apple-system, BlinkMacSystemFont, &quot;Segoe UI&quot;, sans-serif;font-size:16px;font-weight:400;text-anchor:start;dominant-baseline:auto"/>

  
  <rect x="310" y="445" width="60" height="14" rx="7" fill="#001a0a" style="fill:rgb(0, 26, 10);stroke:none;color:rgb(11, 11, 11);stroke-width:1px;stroke-linecap:butt;stroke-linejoin:miter;opacity:1;font-family:&quot;Anthropic Sans&quot;, -apple-system, BlinkMacSystemFont, &quot;Segoe UI&quot;, sans-serif;font-size:16px;font-weight:400;text-anchor:start;dominant-baseline:auto"/>
  <rect x="313" y="448" width="54" height="8" rx="4" fill="#004d20" style="fill:rgb(0, 77, 32);stroke:none;color:rgb(11, 11, 11);stroke-width:1px;stroke-linecap:butt;stroke-linejoin:miter;opacity:1;font-family:&quot;Anthropic Sans&quot;, -apple-system, BlinkMacSystemFont, &quot;Segoe UI&quot;, sans-serif;font-size:16px;font-weight:400;text-anchor:start;dominant-baseline:auto"/>
  <rect x="313" y="448" width="36" height="8" rx="4" fill="#00c853" opacity="0.9" style="fill:rgb(0, 200, 83);stroke:none;color:rgb(11, 11, 11);stroke-width:1px;stroke-linecap:butt;stroke-linejoin:miter;opacity:0.9;font-family:&quot;Anthropic Sans&quot;, -apple-system, BlinkMacSystemFont, &quot;Segoe UI&quot;, sans-serif;font-size:16px;font-weight:400;text-anchor:start;dominant-baseline:auto"/>
  <circle cx="370" cy="452" r="3" fill="#00e676" style="fill:rgb(0, 230, 118);stroke:none;color:rgb(11, 11, 11);stroke-width:1px;stroke-linecap:butt;stroke-linejoin:miter;opacity:1;font-family:&quot;Anthropic Sans&quot;, -apple-system, BlinkMacSystemFont, &quot;Segoe UI&quot;, sans-serif;font-size:16px;font-weight:400;text-anchor:start;dominant-baseline:auto"/>

  
  <path d="M 220 475 Q 235 465 250 475 Q 265 485 280 475 Q 295 465 310 475 Q 325 485 340 475 Q 355 465 370 475 Q 385 485 400 475 Q 415 465 430 475 Q 445 485 460 475" fill="none" stroke="#00c853" stroke-width="1.5" opacity="0.6" stroke-linecap="round" style="fill:none;stroke:rgb(0, 200, 83);color:rgb(11, 11, 11);stroke-width:1.5px;stroke-linecap:round;stroke-linejoin:miter;opacity:0.6;font-family:&quot;Anthropic Sans&quot;, -apple-system, BlinkMacSystemFont, &quot;Segoe UI&quot;, sans-serif;font-size:16px;font-weight:400;text-anchor:start;dominant-baseline:auto"/>

  
  <path d="M 200 200 L 204 212 L 216 212 L 206 220 L 210 232 L 200 224 L 190 232 L 194 220 L 184 212 L 196 212 Z" fill="#c9a84c" opacity="0.7" style="fill:rgb(201, 168, 76);stroke:none;color:rgb(11, 11, 11);stroke-width:1px;stroke-linecap:butt;stroke-linejoin:miter;opacity:0.7;font-family:&quot;Anthropic Sans&quot;, -apple-system, BlinkMacSystemFont, &quot;Segoe UI&quot;, sans-serif;font-size:16px;font-weight:400;text-anchor:start;dominant-baseline:auto"/>
  <path d="M 480 200 L 484 212 L 496 212 L 486 220 L 490 232 L 480 224 L 470 232 L 474 220 L 464 212 L 476 212 Z" fill="#c9a84c" opacity="0.7" style="fill:rgb(201, 168, 76);stroke:none;color:rgb(11, 11, 11);stroke-width:1px;stroke-linecap:butt;stroke-linejoin:miter;opacity:0.7;font-family:&quot;Anthropic Sans&quot;, -apple-system, BlinkMacSystemFont, &quot;Segoe UI&quot;, sans-serif;font-size:16px;font-weight:400;text-anchor:start;dominant-baseline:auto"/>
  <path d="M 340 168 L 343 177 L 352 177 L 345 183 L 348 192 L 340 186 L 332 192 L 335 183 L 328 177 L 337 177 Z" fill="#c9a84c" opacity="0.5" style="fill:rgb(201, 168, 76);stroke:none;color:rgb(11, 11, 11);stroke-width:1px;stroke-linecap:butt;stroke-linejoin:miter;opacity:0.5;font-family:&quot;Anthropic Sans&quot;, -apple-system, BlinkMacSystemFont, &quot;Segoe UI&quot;, sans-serif;font-size:16px;font-weight:400;text-anchor:start;dominant-baseline:auto"/>

  
  <circle cx="340" cy="340" r="300" fill="none" stroke="#8a6a1f" stroke-width="1" stroke-dasharray="8,6" style="fill:none;stroke:rgb(138, 106, 31);color:rgb(11, 11, 11);stroke-width:1px;stroke-dasharray:8px, 6px;stroke-linecap:butt;stroke-linejoin:miter;opacity:1;font-family:&quot;Anthropic Sans&quot;, -apple-system, BlinkMacSystemFont, &quot;Segoe UI&quot;, sans-serif;font-size:16px;font-weight:400;text-anchor:start;dominant-baseline:auto"/>
</svg>